<svg width="1024" height="185" viewBox="0 0 1024 185" fill="none" xmlns="http://www.w3.org/2000/svg">
<g clip-path="url(#clip0_910_10157)">
<path d="M29.9286 1.01562H0V182.474H29.9286V1.01562Z" fill="#1C1C1C"/>
<path d="M187.932 107.696V182.474H158.003V168.569C144.679 177.394 124.243 185 103.836 185C66.2143 185 52.5708 165.057 52.5708 145.056C52.5708 125.055 67.5496 105.055 103.836 105.055C124.214 105.055 144.679 112.718 158.003 121.543V107.725C158.003 82.4122 154.2 70.8298 123.053 70.8298C91.9047 70.8298 67.6948 86.3021 67.6948 86.3021L54.0222 66.1271C54.0222 66.1271 84.7636 46.2715 120.904 46.2715C173.272 46.2715 187.932 70.6556 187.932 107.696ZM158.003 142.444C146.421 133.416 129.381 125.026 111.325 125.026C90.5113 125.026 82.5575 134.345 82.5575 145.056C82.5575 155.768 95.0398 165.057 111.325 165.057C129.381 165.057 146.421 156.842 158.003 147.843V142.473V142.444Z" fill="#1C1C1C"/>
<path d="M418.362 48.8555L381.844 182.475H331.218L308.227 98.3494L285.207 182.475H234.581L198.063 48.8555H238.645L259.865 126.594L281.085 48.8555H335.253L356.502 126.507L377.809 48.8555H418.362Z" fill="#1C1C1C"/>
<path d="M560.138 107.697V182.474H520.746V173.94C508.119 180.239 492.095 184.971 476.042 184.971C438.421 184.971 424.806 165.028 424.806 145.027C424.806 123.343 442.63 105.026 476.071 104.997C492.124 104.997 508.148 109.787 520.775 116.115V107.697C520.775 85.954 519.759 80.2644 495.259 80.2644C467.449 80.2644 445.213 94.1401 444.981 94.2852L426.229 66.1564C426.229 66.1564 456.97 46.3008 493.111 46.3008C545.479 46.3008 560.138 70.6849 560.138 107.726M520.746 145.144C512.85 140.238 500.629 134.49 486.753 134.49C473.807 134.49 464.198 136.319 464.198 145.056C464.198 150.833 472.733 155.594 486.753 155.594C497.697 155.594 509.947 151.762 520.746 145.115" fill="#1C1C1C"/>
<path d="M625.888 0.987305H586.496V182.475H625.888V0.987305Z" fill="#1C1C1C"/>
<path d="M693.525 0.987305H654.133V182.475H693.525V0.987305Z" fill="#1C1C1C"/>
<path d="M853.444 115.679C853.444 117.914 853.299 120.266 853.067 122.646H748.07C750.828 136.58 761.597 154.084 783.775 154.171C804.386 154.171 820.7 136.638 820.845 136.464L848.248 153.184C848.248 153.184 827.26 185 781.627 185C727.895 185 709.81 144.65 709.81 115.708C709.81 86.7666 727.866 46.3877 781.627 46.3877C835.388 46.3877 853.444 86.7376 853.444 115.708M813.094 93.7335C813.094 93.7335 806.272 75.8809 781.656 75.8809C757.04 75.8809 752.889 93.7335 752.889 93.7335H813.094Z" fill="#1C1C1C"/>
<path d="M956.99 170.021C956.99 170.021 936.379 185 919.92 185C878.641 185 878.641 149.875 878.641 121.659V81.5703H860.963V48.8549H878.641V13.4399L918.033 1.01562V48.884H949.297V81.5993H918.033V121.717C918.033 134.548 918.033 151.762 928.397 151.762C937.425 151.762 948.775 145.782 948.775 145.782L956.99 170.05V170.021Z" fill="#1C1C1C"/>
<path d="M1015.66 64.8207C1008.25 54.9219 996.44 48.4775 983.115 48.4775H961.402V81.1639H983.115C996.411 81.1639 1008.23 74.7195 1015.66 64.8207Z" fill="#1C1C1C"/>
<path d="M991.012 89.3791C990.866 93.6173 987.383 96.9846 983.116 96.9846V129.671C1005.5 129.671 1023.7 111.47 1023.7 89.0888C1023.7 83.6314 1022.59 78.4062 1020.62 73.6455C1013.65 82.6444 1003.03 88.6534 990.982 89.3791" fill="#1C1C1C"/>
<path d="M991.012 40.2919C990.866 36.0537 987.383 32.6863 983.116 32.6863V0C1005.5 0 1023.7 18.201 1023.7 40.5821C1023.7 46.0395 1022.59 51.2647 1020.62 56.0254C1013.65 47.0265 1003.03 41.0176 990.982 40.2919" fill="#1C1C1C"/>
</g>
<defs>
<clipPath id="clip0_910_10157">
<rect width="1023.73" height="185" fill="white"/>
</clipPath>
</defs>
</svg>
