<svg width="1046" height="189" viewBox="0 0 1046 189" fill="none" xmlns="http://www.w3.org/2000/svg">
<path d="M1004.26 84.5699C1008.7 84.5699 1012.32 88.1799 1012.32 92.6299C1012.32 97.0799 1008.71 100.69 1004.26 100.69V133.99C1027.06 133.99 1045.62 115.44 1045.62 92.6299C1045.62 83.3799 1042.56 74.8199 1037.41 67.9199C1029.86 78.0199 1017.81 84.5699 1004.26 84.5699Z" fill="#E95052"/>
<path d="M1037.41 67.9196C1042.57 61.0196 1045.62 52.4697 1045.62 43.2097C1045.62 20.4097 1027.07 1.84961 1004.26 1.84961V35.1497C1008.7 35.1497 1012.32 38.7597 1012.32 43.2097C1012.32 47.6597 1008.71 51.2697 1004.26 51.2697C1017.81 51.2697 1029.86 57.8196 1037.41 67.9196Z" fill="#55B68C"/>
<path d="M1037.41 67.9195C1029.86 57.8195 1017.81 51.2695 1004.26 51.2695H982.13V84.5695H1004.26C1017.81 84.5695 1029.86 78.0195 1037.41 67.9195Z" fill="url(#paint0_linear_894_4859)"/>
<path d="M1037.41 67.9195C1029.86 57.8195 1017.81 51.2695 1004.26 51.2695H982.13V84.5695H1004.26C1017.81 84.5695 1029.86 78.0195 1037.41 67.9195Z" fill="#FDC800"/>
<path d="M0.730469 185.81V0.889648H31.2405V185.8L0.730469 185.81Z" fill="white"/>
<path d="M192.21 109.62V185.82H161.7V171.64C148.13 180.63 127.29 188.37 106.52 188.37C68.1701 188.37 54.29 168.06 54.29 147.67C54.29 127.28 69.5401 106.9 106.52 106.9C127.29 106.9 148.13 114.72 161.7 123.71V109.63C161.7 83.8302 157.82 72.0402 126.09 72.0402C94.3601 72.0402 69.6901 87.8102 69.6901 87.8102L55.7701 67.2603C55.7701 67.2603 87.1 47.0303 123.92 47.0303C177.27 47.0303 192.21 71.8902 192.21 109.62ZM161.7 145.01C149.9 135.81 132.52 127.26 114.14 127.26C92.9201 127.26 84.8101 136.75 84.8101 147.67C84.8101 158.59 97.5301 168.05 114.14 168.05C132.52 168.05 149.9 159.69 161.7 150.49V145.01Z" fill="white"/>
<path d="M427.041 49.6602L389.831 185.8H338.241L314.801 100.06L291.361 185.8H239.771L202.551 49.6602H243.911L265.541 128.85L287.141 49.6602H342.331L364.011 128.76L385.701 49.6602H427.041Z" fill="white"/>
<path d="M571.51 109.62V185.82H531.37V177.12C518.51 183.54 502.17 188.37 485.82 188.37C447.48 188.37 433.61 168.06 433.61 147.67C433.61 125.56 451.76 106.9 485.84 106.89C502.19 106.89 518.54 111.76 531.39 118.21V109.62C531.39 87.4602 530.36 81.6602 505.41 81.6602C477.07 81.6602 454.41 95.7902 454.19 95.9302L435.09 67.2603C435.09 67.2603 466.42 47.0303 503.24 47.0303C556.58 47.0403 571.51 71.8902 571.51 109.62ZM531.38 147.75C523.33 142.75 510.88 136.9 496.73 136.9C483.54 136.9 473.74 138.77 473.74 147.67C473.74 153.56 482.43 158.42 496.73 158.42C507.89 158.42 520.37 154.52 531.38 147.75Z" fill="white"/>
<path d="M598.351 185.81V0.879883H638.491V185.8H598.351V185.81Z" fill="white"/>
<path d="M667.261 185.81V0.879883H707.401V185.8H667.261V185.81Z" fill="white"/>
<path d="M870.35 117.75C870.35 120.04 870.19 122.43 869.96 124.84H762.97C765.79 139.05 776.76 156.88 799.36 156.96C820.36 156.96 837 139.09 837.12 138.91L865.05 155.96C865.05 155.96 843.66 188.38 797.16 188.38C742.4 188.38 723.99 147.27 723.99 117.76C723.99 88.2596 742.4 47.1397 797.16 47.1397C851.94 47.1297 870.35 88.2496 870.35 117.75ZM829.25 95.3496C829.25 95.3496 822.29 77.1696 797.22 77.1696C772.15 77.1696 767.91 95.3496 767.91 95.3496H829.25Z" fill="white"/>
<path d="M975.87 173.12C975.87 173.12 954.86 188.37 938.11 188.37C896.04 188.37 896.041 152.58 896.041 123.84V82.9904H878.041V49.6703H896.041V13.5704L936.181 0.900391V49.6703H968.031V82.9904H936.181V123.85C936.181 136.93 936.18 154.47 946.75 154.47C955.96 154.46 967.5 148.38 967.5 148.38L975.87 173.12Z" fill="white"/>
<defs>
<linearGradient id="paint0_linear_894_4859" x1="982.13" y1="67.9196" x2="1045.62" y2="67.9196" gradientUnits="userSpaceOnUse">
<stop stop-color="white"/>
<stop offset="1" stop-color="#1D1D1B"/>
</linearGradient>
</defs>
</svg>
